<svg width="28" height="34" viewBox="0 0 28 34" fill="none" xmlns="http://www.w3.org/2000/svg">
<path d="M23.1306 17.9533C23.1641 15.3449 24.5311 12.9358 26.7532 11.5702C25.3457 9.55874 23.0706 8.32982 20.617 8.2531C18.035 7.98249 15.5325 9.79727 14.2171 9.79727C12.8766 9.79727 10.8512 8.2796 8.66953 8.32424C5.80019 8.4177 3.1889 10.0093 1.79259 12.5188C-1.17997 17.666 1.03655 25.232 3.88497 29.3931C5.31057 31.431 6.97471 33.7061 9.15496 33.6266C11.2878 33.5387 12.0843 32.2666 14.6579 32.2666C17.2078 32.2666 17.9555 33.6266 20.179 33.575C22.4666 33.5373 23.909 31.5287 25.2844 29.4712C26.3082 28.0191 27.0964 26.4149 27.6181 24.7173C24.9008 23.5679 23.1334 20.905 23.1306 17.9533Z" fill="white"/>
<path d="M18.931 5.51663C20.1781 4.01849 20.7933 2.09351 20.644 0.150391C18.7386 0.351259 16.9768 1.26214 15.713 2.70169C14.4645 4.12311 13.8312 5.98114 13.954 7.86986C15.8859 7.88938 17.7203 7.02175 18.931 5.51663Z" fill="white"/>
</svg>
