<svg width="446" height="468" viewBox="0 0 446 468" fill="none" xmlns="http://www.w3.org/2000/svg">
<path d="M439.368 4.72876C439.941 2.29204 436.512 0.672046 434.412 2.37439C413.087 19.6583 361.849 71.4191 374.618 161.873C390.639 275.362 363.249 316.773 329.155 342.032C329.155 342.032 375.978 330.153 405.437 288.134C477.763 184.965 429.185 48.0586 439.368 4.72876Z" fill="#407BFF" fill-opacity="0.7"/>
<path d="M423.139 40.1773C420.471 52.8112 418.094 65.4838 416.256 78.2136C414.341 90.9332 412.875 103.697 411.87 116.48C410.923 129.267 410.254 142.067 410.215 154.873C410.111 167.678 410.644 180.472 411.231 193.316C411.734 206.155 412.325 219.088 411.386 232.111C410.461 245.108 407.724 258.22 402.292 270.511C400.933 273.574 399.506 276.628 397.883 279.579C396.325 282.557 394.612 285.476 392.84 288.368C389.26 294.137 385.232 299.709 380.743 305.001C371.732 315.563 360.864 324.934 348.892 332.864C347.633 333.699 345.827 333.494 344.858 332.405C343.909 331.338 344.12 329.815 345.323 328.97L345.331 328.963C348.179 326.964 350.998 324.939 353.704 322.811C355.075 321.766 356.392 320.67 357.73 319.596C359.02 318.48 360.361 317.407 361.61 316.257C366.695 311.735 371.404 306.909 375.677 301.807C384.272 291.65 391.153 280.332 396.365 268.598C398.896 262.705 400.918 256.66 402.396 250.501C403.867 244.342 404.793 238.076 405.304 231.759C406.33 219.118 405.866 206.313 405.471 193.472C405.094 180.626 404.817 167.717 405.157 154.815C405.306 148.366 405.59 141.919 406.007 135.48C406.194 132.26 406.454 129.043 406.707 125.827C406.996 122.612 407.303 119.399 407.643 116.189C409.027 103.352 410.864 90.5568 413.168 77.8304C415.542 65.1124 418.306 52.455 421.629 39.9084C421.725 39.5504 422.139 39.3253 422.554 39.4076C422.956 39.4883 423.212 39.8277 423.139 40.1773Z" fill="white"/>
<path d="M384.718 244.322C386.735 247.456 391.3 247.511 393.435 244.454C405.211 227.589 434.19 176.895 414.626 108.642C398.104 51.0062 394.624 18.1845 394.077 3.17434C393.961 -0.000111544 389.859 -1.1815 388.067 1.44175C368.285 30.3714 311.593 130.744 384.718 244.322Z" fill="#BDD0FB"/>
<path d="M389.646 243.228C389.732 243.26 389.823 243.285 389.919 243.302C390.711 243.436 391.464 242.903 391.598 242.112C391.751 241.214 406.676 151.365 387.325 70.1889C387.138 69.4075 386.353 68.9252 385.571 69.11C384.789 69.2965 384.307 70.0813 384.492 70.8628C403.703 151.447 388.88 240.73 388.728 241.623C388.607 242.32 389.007 242.987 389.646 243.228Z" fill="white"/>
<path d="M392.718 94.0889L171.58 97.8062C159.379 98.0112 149.481 107.736 149.064 119.927L138.131 440.667C137.807 450.206 145.446 458.117 154.996 458.131L408.527 458.475C417.498 458.487 424.736 451.142 424.584 442.175L419.159 119.644C418.918 105.289 407.081 93.8486 392.718 94.0889Z" fill="url(#paint0_linear)"/>
<path d="M371.402 453.765H371.405L399.76 452.921C409.304 452.637 416.939 444.643 416.777 435.1L416.058 392.301C416.051 391.903 415.721 391.585 415.323 391.592C414.918 391.62 414.605 391.928 414.613 392.326L415.333 435.125C415.481 443.882 408.475 451.217 399.716 451.478L371.362 452.321C370.963 452.333 370.649 452.666 370.66 453.064C370.672 453.462 371.003 453.777 371.402 453.765Z" fill="#BDD0FB"/>
<path d="M415.129 379.78C415.524 379.77 415.84 379.442 415.834 379.045L415.718 372.115C415.711 371.717 415.383 371.397 414.983 371.406H414.978C414.579 371.416 414.265 371.743 414.272 372.14L414.388 379.07C414.394 379.469 414.722 379.788 415.122 379.781L415.129 379.78Z" fill="#BDD0FB"/>
<path d="M391.995 91.5028C361.866 96.104 258.233 110.509 172.264 105.364C168.344 105.128 164.996 108.151 164.853 112.074L153.152 434.256C152.992 438.674 156.427 442.392 160.845 442.578C196.99 444.107 345.843 449.865 398.793 443.42C402.016 443.028 404.42 440.269 404.385 437.026L400.688 98.8886C400.639 94.2958 396.538 90.8088 391.995 91.5028Z" fill="#91B3FA"/>
<path d="M388.9 99.907C359.905 104.335 260.175 118.197 177.444 113.247C173.672 113.022 170.449 115.929 170.312 119.705L159.053 429.754C158.898 434.006 162.204 437.584 166.457 437.763C201.242 439.236 344.488 444.776 395.445 438.573C398.547 438.195 400.861 435.542 400.827 432.419L397.268 107.015C397.219 102.596 393.273 99.2399 388.9 99.907Z" fill="#BDD0FB"/>
<g opacity="0.6">
<path opacity="0.6" d="M180.264 140.424C179.077 140.444 178.153 139.489 178.212 138.305L178.218 138.155C178.277 136.969 179.296 135.975 180.483 135.945L368.169 131.312C369.356 131.284 369.736 132.028 369.012 132.969L366.991 135.596C366.266 136.537 364.703 137.323 363.516 137.343L180.264 140.424Z" fill="white"/>
</g>
<g opacity="0.6">
<path opacity="0.6" d="M368.377 143.694C369.564 143.666 369.944 144.41 369.22 145.351L367.199 147.978C366.474 148.919 364.911 149.705 363.724 149.725L180.472 152.806C179.285 152.826 178.361 151.871 178.42 150.687L178.426 150.537C178.485 149.351 179.504 148.358 180.691 148.327L368.377 143.694Z" fill="white"/>
</g>
<path d="M331.559 250.928C331.464 241.258 331.49 232.182 332.864 227.402C333.696 224.507 336.566 222.541 339.866 222.593C339.9 222.593 339.934 222.594 339.969 222.596C344.581 222.726 352.422 223.517 359.339 224.214C362.516 224.534 365.403 224.826 367.501 225.001C369.018 225.129 370.411 225.843 371.321 226.96C372.136 227.96 372.503 229.194 372.353 230.434L369.84 251.274C369.45 254.507 366.452 256.929 362.864 256.907L337.973 256.759C337.951 256.759 337.928 256.759 337.904 256.757C334.431 256.7 331.593 254.099 331.559 250.928ZM367.331 227.023C365.225 226.844 362.326 226.554 359.135 226.231C352.592 225.572 344.45 224.751 339.912 224.623C337.58 224.502 335.393 225.961 334.818 227.96C333.52 232.479 333.496 241.393 333.592 250.906C333.614 252.981 335.557 254.685 337.936 254.722C337.953 254.722 337.97 254.722 337.985 254.724L362.876 254.872C365.43 254.887 367.557 253.233 367.822 251.025L370.336 230.185C370.418 229.498 370.208 228.806 369.746 228.238C369.182 227.547 368.301 227.105 367.331 227.023Z" fill="white"/>
<path opacity="0.6" d="M364.625 229.075C359.403 228.636 348.056 227.307 342.668 227.155C340.385 227.092 338.361 228.439 337.794 230.411C336.694 234.239 336.713 241.903 336.784 248.978C336.805 251.097 338.724 252.818 341.101 252.832L360.992 252.951C363.438 252.966 365.494 251.329 365.757 249.163L367.764 232.511C367.973 230.789 366.562 229.238 364.625 229.075Z" fill="white"/>
<g opacity="0.6">
<path opacity="0.6" d="M316.279 234.756C317.466 234.746 318.176 235.674 317.856 236.817L315.548 245.041C315.227 246.184 313.993 247.105 312.806 247.086L187.724 245.14C186.537 245.122 185.601 244.135 185.646 242.949L185.833 237.986C185.876 236.8 186.885 235.822 188.072 235.812L316.279 234.756Z" fill="white"/>
</g>
<path d="M330.117 195.067C330.021 185.397 330.048 176.321 331.422 171.541C332.254 168.646 335.124 166.68 338.424 166.732C338.458 166.732 338.491 166.733 338.525 166.735C343.137 166.864 350.978 167.656 357.895 168.353C361.072 168.674 363.959 168.965 366.057 169.142C367.574 169.269 368.966 169.983 369.877 171.101C370.692 172.101 371.059 173.334 370.909 174.575L368.396 195.413C368.006 198.646 365.008 201.068 361.42 201.046L336.529 200.898C336.506 200.898 336.484 200.898 336.46 200.896C332.989 200.841 330.149 198.239 330.117 195.067ZM365.887 171.163C363.781 170.985 360.882 170.694 357.691 170.372C351.148 169.713 343.005 168.891 338.468 168.763C336.136 168.642 333.949 170.101 333.374 172.101C332.076 176.62 332.052 185.533 332.148 195.046C332.17 197.123 334.113 198.826 336.492 198.863C336.509 198.863 336.526 198.863 336.541 198.863L361.432 199.011C363.986 199.026 366.112 197.372 366.378 195.164L368.892 174.324C368.974 173.637 368.765 172.945 368.301 172.376C367.738 171.687 366.859 171.244 365.887 171.163Z" fill="white"/>
<path opacity="0.6" d="M363.183 173.215C357.961 172.776 346.614 171.447 341.226 171.296C338.942 171.232 336.918 172.58 336.352 174.551C335.252 178.379 335.271 186.044 335.341 193.119C335.363 195.238 337.281 196.958 339.659 196.974L359.549 197.093C361.996 197.108 364.052 195.471 364.314 193.305L366.322 176.653C366.53 174.927 365.118 173.378 363.183 173.215Z" fill="white"/>
<g opacity="0.6">
<path opacity="0.6" d="M314.835 178.895C316.022 178.885 316.731 179.813 316.412 180.955L314.104 189.18C313.782 190.322 312.548 191.243 311.362 191.225L186.28 189.279C185.093 189.26 184.156 188.274 184.202 187.088L184.388 182.125C184.432 180.939 185.441 179.961 186.628 179.95L314.835 178.895Z" fill="white"/>
</g>
<path d="M330.731 304.245C330.635 294.575 330.662 285.499 332.036 280.719C332.868 277.824 335.738 275.856 339.038 275.908C339.072 275.908 339.106 275.91 339.139 275.91C343.751 276.039 351.592 276.831 358.509 277.528C361.686 277.849 364.573 278.14 366.671 278.315C368.188 278.442 369.58 279.157 370.491 280.274C371.307 281.274 371.673 282.508 371.523 283.748L369.01 304.586C368.62 307.819 365.622 310.241 362.034 310.219L337.144 310.071C337.12 310.071 337.098 310.071 337.075 310.069C333.603 310.017 330.763 307.416 330.731 304.245ZM366.502 280.34C364.397 280.162 361.496 279.871 358.305 279.548C351.762 278.889 343.62 278.068 339.082 277.94C336.75 277.844 334.563 279.278 333.988 281.279C332.69 285.796 332.666 294.71 332.762 304.225C332.784 306.302 334.728 308.004 337.107 308.041C337.123 308.041 337.14 308.041 337.155 308.041L362.046 308.189C364.6 308.204 366.727 306.55 366.994 304.342L369.508 283.504C369.59 282.817 369.382 282.124 368.918 281.556C368.353 280.864 367.472 280.42 366.502 280.34Z" fill="white"/>
<path opacity="0.6" d="M363.794 282.393C358.572 281.954 347.225 280.625 341.837 280.474C339.554 280.41 337.53 281.758 336.963 283.729C335.863 287.557 335.882 295.222 335.953 302.297C335.974 304.416 337.893 306.137 340.27 306.152L360.161 306.269C362.607 306.285 364.663 304.649 364.926 302.482L366.933 285.83C367.143 284.105 365.731 282.554 363.794 282.393Z" fill="white"/>
<g opacity="0.6">
<path opacity="0.6" d="M315.448 288.073C316.635 288.063 317.345 288.991 317.025 290.133L314.719 298.358C314.398 299.5 313.164 300.421 311.977 300.403L186.893 298.457C185.706 298.438 184.77 297.452 184.815 296.265L185.002 291.303C185.045 290.117 186.054 289.139 187.241 289.128L315.448 288.073Z" fill="white"/>
</g>
<path d="M332.262 355.476C332.167 345.807 332.194 336.732 333.567 331.951C334.408 329.025 337.395 327.076 340.67 327.143C345.284 327.273 353.471 328.098 360.05 328.762C363.224 329.081 366.109 329.373 368.204 329.548C369.721 329.677 371.115 330.39 372.024 331.508C372.838 332.507 373.206 333.741 373.056 334.981L370.543 355.819C370.153 359.053 367.153 361.476 363.567 361.452L338.675 361.304C338.653 361.304 338.631 361.304 338.609 361.304C335.136 361.251 332.294 358.649 332.262 355.476ZM368.033 331.573C365.928 331.395 363.033 331.104 359.845 330.783C353.3 330.123 345.153 329.301 340.613 329.175C338.28 329.104 336.094 330.513 335.519 332.512C334.221 337.031 334.198 345.943 334.293 355.458C334.315 357.548 336.341 359.199 338.687 359.276L363.579 359.424C366.133 359.439 368.26 357.785 368.525 355.577L371.039 334.739C371.121 334.052 370.913 333.361 370.449 332.791C369.884 332.097 369.003 331.654 368.033 331.573Z" fill="white"/>
<path opacity="0.6" d="M365.326 333.625C360.104 333.186 348.758 331.857 343.369 331.706C341.086 331.642 339.062 332.989 338.495 334.961C337.396 338.789 337.414 346.454 337.485 353.528C337.507 355.648 339.427 357.368 341.802 357.382L361.693 357.499C364.139 357.515 366.195 355.879 366.458 353.712L368.465 337.06C368.675 335.339 367.263 333.788 365.326 333.625Z" fill="white"/>
<g opacity="0.6">
<path opacity="0.6" d="M316.979 339.306C318.166 339.296 318.876 340.224 318.556 341.367L316.25 349.589C315.929 350.732 314.695 351.653 313.508 351.635L188.424 349.689C187.237 349.67 186.301 348.684 186.346 347.497L186.533 342.535C186.577 341.348 187.585 340.37 188.772 340.36L316.979 339.306Z" fill="white"/>
</g>
<g opacity="0.6">
<path opacity="0.6" d="M304.938 391.936C306.125 391.923 306.86 392.854 306.569 394.005L304.5 402.204C304.209 403.355 303 404.281 301.813 404.263L190.43 402.53C189.243 402.512 188.305 401.525 188.347 400.339L188.522 395.376C188.564 394.19 189.569 393.208 190.756 393.195L304.938 391.936Z" fill="white"/>
</g>
<g opacity="0.6">
<path opacity="0.6" d="M366.083 395.423C367.27 395.371 368.124 396.292 367.981 397.472L367.226 403.708C367.084 404.886 365.996 405.836 364.807 405.817L325.304 405.202C324.118 405.183 323.169 404.197 323.198 403.011L323.284 399.46C323.312 398.273 324.308 397.26 325.493 397.206L366.083 395.423Z" fill="white"/>
</g>
<path d="M267.777 83.9673L292.831 81.3206L294.553 58.281C294.899 53.6445 291.937 49.3895 287.455 48.1493C282.54 46.7898 275.593 46.7965 267.7 52.485C252.215 63.6401 267.777 83.9673 267.777 83.9673ZM272.683 64.7089C272.624 61.2555 275.38 58.4087 278.835 58.3499C282.29 58.2911 285.138 61.0454 285.197 64.4988C285.254 67.9522 282.502 70.799 279.045 70.8578C275.59 70.9149 272.742 68.1623 272.683 64.7089Z" fill="url(#paint1_linear)"/>
<path d="M290.059 72.3183C289.374 72.2678 288.862 71.6713 288.912 70.9873L289.186 67.3171C289.237 66.6315 289.835 66.1189 290.519 66.171C291.204 66.2214 291.716 66.818 291.666 67.502L291.392 71.1722C291.355 71.6679 291.032 72.0729 290.598 72.2393C290.432 72.3048 290.249 72.3334 290.059 72.3183ZM290.595 65.1291C289.911 65.0787 289.398 64.4821 289.448 63.7982L289.657 61.0119C289.921 57.4711 287.644 54.2193 284.242 53.2783C281.528 52.5271 278.742 52.4599 275.96 53.08C275.289 53.2295 274.625 52.806 274.477 52.1372C274.327 51.4667 274.761 50.8113 275.42 50.655C278.604 49.9475 281.797 50.0248 284.906 50.8852C289.447 52.1423 292.488 56.4796 292.135 61.1984L291.927 63.9847C291.89 64.4804 291.567 64.8854 291.133 65.0518C290.968 65.114 290.785 65.1425 290.595 65.1291Z" fill="#BDD0FB"/>
<path d="M327.326 95.6114L327.131 84.0446C327.063 80.0517 323.699 76.9092 319.71 77.1142L239.978 81.1877C236.439 81.3676 233.619 84.211 233.466 87.7484L232.987 98.8733L327.326 95.6114Z" fill="url(#paint2_linear)"/>
<path d="M300.779 81.9087C301.175 81.8987 301.491 81.571 301.482 81.1744C301.475 80.7761 301.148 80.4585 300.747 80.4652L297.316 80.5223C296.901 80.5341 296.598 80.8584 296.607 81.2567C296.613 81.655 296.941 81.9726 297.341 81.9659L300.773 81.9087C300.774 81.9087 300.776 81.9087 300.779 81.9087Z" fill="#BDD0FB"/>
<path d="M323.383 92.6068C323.856 92.4253 324.187 91.9631 324.179 91.4271L324.1 86.7486C324.068 84.8278 323.289 83.0347 321.907 81.6987C320.525 80.3627 318.706 79.6451 316.783 79.677L304.17 79.8905C303.487 79.9039 302.936 80.4669 302.949 81.1542C302.961 81.8398 303.526 82.386 304.214 82.3759L316.827 82.1625C319.424 82.1188 321.573 84.1959 321.616 86.7923L321.695 91.4707C321.707 92.1564 322.274 92.7026 322.96 92.6925C323.108 92.6874 323.251 92.6572 323.383 92.6068Z" fill="#BDD0FB"/>
<path d="M352.252 90.9584L212.745 93.2993C207.728 93.3833 203.501 97.0636 202.728 102.019L202.622 102.703C201.777 108.131 206.028 113.01 211.523 112.917L354.649 110.513C357.938 110.457 360.512 107.666 360.298 104.385L359.883 97.9879C359.621 93.9832 356.263 90.8911 352.252 90.9584Z" fill="url(#paint3_linear)"/>
<path d="M364.171 236.112C362.694 234.945 360.545 235.218 359.409 236.721L354.064 243.784C353.529 244.491 352.416 244.286 352.167 243.436L344.857 218.361C344.492 217.111 342.683 217.264 342.522 218.556C341.623 225.789 341.624 239.776 351.557 252.869C351.557 252.869 358.26 251.286 364.948 240.761C365.918 239.242 365.585 237.23 364.171 236.112Z" fill="url(#paint4_linear)"/>
<path d="M362.216 176.665C360.739 175.497 358.59 175.771 357.453 177.273L352.109 184.336C351.574 185.044 350.461 184.839 350.212 183.989L342.902 158.914C342.537 157.664 340.728 157.817 340.567 159.109C339.668 166.342 339.669 180.328 349.602 193.421C349.602 193.421 356.305 191.838 362.993 181.313C363.963 179.792 363.629 177.783 362.216 176.665Z" fill="url(#paint5_linear)"/>
<path d="M361.314 287.487C359.836 286.319 357.688 286.593 356.551 288.095L351.206 295.158C350.672 295.866 349.559 295.661 349.31 294.81L342 269.736C341.635 268.485 339.826 268.638 339.665 269.931C338.765 277.163 338.767 291.15 348.7 304.243C348.7 304.243 355.403 302.66 362.091 292.135C363.061 290.614 362.728 288.604 361.314 287.487Z" fill="url(#paint6_linear)"/>
<path d="M363.524 336.369C362.046 335.201 359.898 335.475 358.761 336.977L353.416 344.041C352.882 344.748 351.769 344.543 351.52 343.693L344.21 318.618C343.845 317.368 342.036 317.521 341.875 318.813C340.975 326.046 340.977 340.033 350.91 353.125C350.91 353.125 357.613 351.542 364.301 341.017C365.271 339.497 364.938 337.485 363.524 336.369Z" fill="url(#paint7_linear)"/>
<path d="M271.766 461.801C282.363 462.003 291.064 453.471 291.064 442.876V358.654C291.064 347.588 282.167 338.586 271.097 338.465C237.874 338.104 169.353 338.085 113.288 342.807C105.637 343.451 99.687 349.719 99.4096 357.389L94.1691 438.814C93.7791 449.584 102.298 458.581 113.078 458.786L271.766 461.801Z" fill="url(#paint8_linear)"/>
<path d="M271.822 367.766C271.963 374.932 271.75 386.304 271.576 393.649C271.486 397.47 268.128 400.384 264.33 399.939L236.988 396.736C233.346 396.309 230.779 392.953 231.324 389.328L234.68 366.949C235.155 363.771 237.886 361.422 241.1 361.422H265.331C268.861 361.422 271.751 364.239 271.822 367.766Z" fill="white"/>
<path opacity="0.37" d="M200.369 410.176L177.561 412.635C174.37 412.979 171.646 410.348 171.881 407.148L176.868 339.332C186.429 339.029 195.859 338.807 204.96 338.653V405.064C204.958 407.691 202.979 409.894 200.369 410.176Z" fill="white"/>
<path d="M191.02 398.423C190.95 399.643 189.939 400.584 188.732 400.584C188.687 400.584 188.643 400.583 188.598 400.579C187.333 400.505 186.367 399.421 186.441 398.158L189.88 338.971C191.422 338.932 192.952 338.898 194.482 338.865L191.02 398.423Z" fill="white"/>
<path d="M259.177 389.13C259.577 389.13 259.915 388.819 259.94 388.414L261.124 369.772C261.151 369.351 260.831 368.989 260.408 368.962C259.964 368.929 259.624 369.256 259.597 369.678L258.414 388.32C258.387 388.74 258.706 389.103 259.13 389.13C259.145 389.13 259.162 389.13 259.177 389.13Z" fill="url(#paint9_linear)"/>
<path d="M256.742 389.13C257.152 389.13 257.493 388.804 257.507 388.39L258.127 369.391C258.141 368.969 257.81 368.614 257.388 368.601C256.9 368.577 256.612 368.919 256.597 369.34L255.977 388.34C255.964 388.762 256.295 389.116 256.717 389.13C256.717 389.13 256.734 389.13 256.742 389.13Z" fill="url(#paint10_linear)"/>
<path d="M253.441 389.128C253.019 389.108 252.693 388.75 252.713 388.33C253.015 381.947 253.594 369.774 253.602 369.359C253.606 368.94 253.947 368.603 254.367 368.603C254.789 368.603 255.132 368.944 255.132 369.367C255.132 369.681 254.389 385.28 254.239 388.402C254.219 388.812 253.883 389.131 253.476 389.131C253.466 389.13 253.453 389.13 253.441 389.128ZM253.589 369.365H253.604H253.589Z" fill="url(#paint11_linear)"/>
<path d="M248.38 389.893C249.2 389.893 249.878 389.244 249.906 388.417C250.553 370.009 250.439 369.594 250.365 369.32C250.143 368.503 249.296 368.025 248.487 368.246C247.739 368.451 247.272 369.177 247.373 369.925C247.421 371.031 247.08 381.742 246.85 388.311C246.819 389.155 247.48 389.864 248.324 389.893C248.341 389.893 248.361 389.893 248.38 389.893Z" fill="url(#paint12_linear)"/>
<path d="M245.065 389.13C245.487 389.13 245.83 388.789 245.83 388.366V369.724C245.83 369.302 245.488 368.959 245.065 368.959C244.643 368.959 244.3 369.3 244.3 369.724V388.366C244.3 388.787 244.643 389.13 245.065 389.13Z" fill="url(#paint13_linear)"/>
<path d="M242.388 389.13C242.803 389.13 243.145 388.799 243.153 388.384C243.299 381.906 243.642 371.325 243.948 370.053C244.083 369.813 244.081 369.508 243.92 369.26C243.688 368.905 243.215 368.809 242.861 369.04C242.444 369.312 242.049 369.571 241.623 388.347C241.615 388.769 241.949 389.118 242.37 389.13H242.388Z" fill="url(#paint14_linear)"/>
<path d="M263.291 390.827C264.099 390.827 264.774 390.194 264.817 389.377L265.838 369.801C265.882 368.957 265.233 368.24 264.389 368.194C263.588 368.137 262.827 368.799 262.781 369.643L261.761 389.219C261.717 390.063 262.366 390.78 263.21 390.826C263.237 390.827 263.264 390.827 263.291 390.827Z" fill="url(#paint15_linear)"/>
<path d="M276.389 326.158V267.012C276.389 259.241 270.141 252.917 262.367 252.833C239.035 252.58 190.914 252.566 151.541 255.883C146.168 256.335 141.988 260.738 141.795 266.124L138.115 323.308C137.84 330.872 143.824 337.191 151.395 337.335L262.838 339.453C270.279 339.59 276.389 333.599 276.389 326.158Z" fill="url(#paint16_linear)"/>
<path d="M262.875 273.411C262.974 278.444 262.824 286.43 262.701 291.589C262.638 294.273 260.28 296.318 257.612 296.005L238.411 293.755C235.854 293.456 234.051 291.098 234.433 288.552L236.79 272.836C237.125 270.605 239.043 268.954 241.299 268.954H258.317C260.797 268.956 262.826 270.934 262.875 273.411Z" fill="white"/>
<path opacity="0.37" d="M212.696 303.195L196.679 304.922C194.438 305.164 192.524 303.316 192.691 301.069L196.193 253.444C202.908 253.23 209.53 253.076 215.921 252.966V299.607C215.919 301.45 214.528 302.998 212.696 303.195Z" fill="white"/>
<path d="M206.131 294.941C206.082 295.798 205.371 296.459 204.524 296.459C204.492 296.459 204.46 296.457 204.43 296.455C203.542 296.403 202.863 295.642 202.915 294.755L205.331 253.189C206.414 253.163 207.488 253.139 208.562 253.115L206.131 294.941Z" fill="white"/>
<path d="M253.993 288.414C254.274 288.414 254.511 288.196 254.53 287.912L255.36 274.819C255.379 274.523 255.155 274.268 254.858 274.249C254.547 274.226 254.306 274.456 254.288 274.752L253.457 287.845C253.439 288.14 253.662 288.396 253.96 288.414C253.972 288.414 253.983 288.414 253.993 288.414Z" fill="url(#paint17_linear)"/>
<path d="M252.284 288.414C252.574 288.414 252.812 288.186 252.821 287.895L253.256 274.552C253.266 274.255 253.033 274.007 252.737 273.997C252.395 273.981 252.192 274.221 252.182 274.517L251.746 287.86C251.736 288.157 251.97 288.404 252.266 288.414C252.266 288.414 252.278 288.414 252.284 288.414Z" fill="url(#paint18_linear)"/>
<path d="M249.967 288.413C249.669 288.399 249.441 288.147 249.456 287.851C249.669 283.369 250.074 274.821 250.081 274.528C250.083 274.234 250.323 273.997 250.618 273.997C250.915 273.997 251.154 274.238 251.154 274.533C251.154 274.755 250.631 285.709 250.527 287.902C250.513 288.191 250.276 288.413 249.99 288.413C249.984 288.414 249.975 288.414 249.967 288.413ZM250.069 274.535H250.08H250.069Z" fill="url(#paint19_linear)"/>
<path d="M246.41 288.95C246.987 288.95 247.463 288.495 247.483 287.915C247.937 274.987 247.858 274.696 247.806 274.503C247.651 273.93 247.054 273.592 246.488 273.749C245.962 273.891 245.634 274.402 245.706 274.927C245.741 275.703 245.501 283.225 245.34 287.838C245.319 288.429 245.782 288.929 246.375 288.949C246.385 288.95 246.399 288.95 246.41 288.95Z" fill="url(#paint20_linear)"/>
<path d="M244.084 288.414C244.382 288.414 244.62 288.174 244.62 287.878V274.785C244.62 274.488 244.38 274.249 244.084 274.249C243.787 274.249 243.548 274.49 243.548 274.785V287.878C243.548 288.174 243.787 288.414 244.084 288.414Z" fill="url(#paint21_linear)"/>
<path d="M242.204 288.414C242.495 288.414 242.735 288.182 242.741 287.89C242.843 283.341 243.084 275.91 243.299 275.017C243.393 274.849 243.393 274.634 243.279 274.461C243.115 274.212 242.784 274.145 242.535 274.306C242.243 274.498 241.965 274.679 241.666 287.865C241.659 288.162 241.895 288.407 242.191 288.414H242.204Z" fill="url(#paint22_linear)"/>
<path d="M256.884 289.606C257.452 289.606 257.926 289.16 257.956 288.587L258.672 274.839C258.703 274.246 258.247 273.742 257.655 273.712C257.094 273.671 256.557 274.137 256.527 274.728L255.811 288.476C255.781 289.07 256.236 289.574 256.828 289.604C256.847 289.606 256.865 289.606 256.884 289.606Z" fill="url(#paint23_linear)"/>
<path d="M192.956 448.278V389.132C192.956 381.361 187.556 375.037 180.837 374.953C160.674 374.699 119.087 374.686 85.0581 378.003C80.4145 378.455 76.8032 382.858 76.635 388.244L73.4541 445.428C73.2171 452.992 78.3886 459.311 84.9303 459.455L181.242 461.573C187.677 461.71 192.956 455.718 192.956 448.278Z" fill="url(#paint24_linear)"/>
<path d="M181.278 395.531C181.364 400.564 181.235 408.55 181.129 413.709C181.073 416.393 179.035 418.438 176.73 418.125L160.136 415.875C157.926 415.576 156.369 413.218 156.698 410.672L158.736 394.956C159.025 392.725 160.683 391.074 162.633 391.074H177.339C179.481 391.076 181.236 393.052 181.278 395.531Z" fill="white"/>
<path opacity="0.37" d="M137.912 425.314L124.068 427.042C122.132 427.284 120.479 425.435 120.622 423.188L123.648 375.563C129.45 375.35 135.175 375.195 140.698 375.086V421.726C140.698 423.57 139.496 425.116 137.912 425.314Z" fill="white"/>
<path d="M132.237 417.06C132.195 417.917 131.582 418.577 130.848 418.577C130.822 418.577 130.795 418.576 130.766 418.574C129.998 418.522 129.413 417.761 129.456 416.873L131.545 375.308C132.481 375.281 133.409 375.258 134.337 375.234L132.237 417.06Z" fill="white"/>
<path d="M173.603 410.533C173.847 410.533 174.05 410.314 174.067 410.03L174.785 396.938C174.802 396.642 174.607 396.386 174.351 396.368C174.082 396.344 173.875 396.575 173.859 396.87L173.141 409.963C173.124 410.259 173.319 410.514 173.574 410.533C173.585 410.533 173.595 410.533 173.603 410.533Z" fill="url(#paint25_linear)"/>
<path d="M172.125 410.533C172.374 410.533 172.581 410.304 172.589 410.014L172.966 396.67C172.974 396.373 172.773 396.126 172.517 396.116C172.221 396.099 172.046 396.339 172.038 396.635L171.661 409.978C171.653 410.276 171.855 410.523 172.11 410.533C172.11 410.533 172.12 410.533 172.125 410.533Z" fill="url(#paint26_linear)"/>
<path d="M170.122 410.533C169.865 410.519 169.668 410.267 169.68 409.971C169.863 405.49 170.215 396.941 170.22 396.648C170.222 396.354 170.43 396.117 170.684 396.117C170.941 396.117 171.148 396.358 171.148 396.654C171.148 396.875 170.696 407.829 170.607 410.022C170.595 410.311 170.39 410.533 170.143 410.533C170.136 410.533 170.129 410.533 170.122 410.533ZM170.211 396.654H170.22H170.211Z" fill="url(#paint27_linear)"/>
<path d="M167.05 411.071C167.547 411.071 167.959 410.615 167.976 410.035C168.368 397.107 168.299 396.817 168.255 396.623C168.121 396.05 167.606 395.712 167.115 395.869C166.661 396.012 166.377 396.522 166.439 397.047C166.47 397.823 166.261 405.345 166.122 409.958C166.103 410.55 166.505 411.049 167.016 411.069C167.028 411.071 167.04 411.071 167.05 411.071Z" fill="url(#paint28_linear)"/>
<path d="M165.039 410.533C165.296 410.533 165.503 410.292 165.503 409.997V396.904C165.503 396.606 165.296 396.368 165.039 396.368C164.782 396.368 164.575 396.608 164.575 396.904V409.997C164.575 410.294 164.782 410.533 165.039 410.533Z" fill="url(#paint29_linear)"/>
<path d="M163.415 410.533C163.667 410.533 163.874 410.301 163.879 410.008C163.968 405.459 164.174 398.028 164.361 397.136C164.443 396.968 164.442 396.753 164.344 396.58C164.203 396.331 163.917 396.264 163.702 396.425C163.45 396.617 163.209 396.798 162.952 409.983C162.947 410.281 163.151 410.526 163.406 410.533H163.415Z" fill="url(#paint30_linear)"/>
<path d="M176.101 411.726C176.592 411.726 177.001 411.281 177.028 410.708L177.646 396.959C177.673 396.366 177.28 395.862 176.767 395.832C176.281 395.791 175.819 396.257 175.792 396.848L175.173 410.597C175.146 411.19 175.54 411.694 176.052 411.724C176.068 411.726 176.084 411.726 176.101 411.726Z" fill="url(#paint31_linear)"/>
<path d="M198.382 195.498L190.055 199.979C180.067 206.057 171.129 209.268 163.088 210.475C137.975 214.241 121.607 198.402 109.411 188.795C93.3077 176.11 80.7773 182.281 80.7773 182.281L97.9496 215.041C123.595 239.21 149.89 233.842 166.467 226.011C177.021 221.025 183.636 215.041 183.636 215.041C202.5 203.797 198.382 195.498 198.382 195.498Z" fill="url(#paint32_linear)"/>
<path d="M222.918 207.23C222.38 205.444 221.058 203.998 219.327 203.303L202.425 196.508C202.425 196.508 202.169 194.342 205.996 192.87C209.822 191.398 208.928 187.115 208.928 187.115C208.928 187.115 203.701 189.497 196.048 193.279C191.672 195.44 189.215 199.258 187.914 202.131L192.265 207.85C202.682 210.978 213.222 211.576 223.852 210.336L222.918 207.23Z" fill="url(#paint33_linear)"/>
<path d="M77.0833 445.994C77.0833 445.994 75.7971 453.274 75.1666 460.48C74.9195 463.297 77.0917 465.742 79.9178 465.86C89.5195 466.259 110.056 467.036 117.427 466.708C118.535 466.659 119.259 465.525 118.849 464.495C118.506 463.633 117.844 462.934 116.998 462.547L83.0736 446.962L77.0833 445.994Z" fill="url(#paint34_linear)"/>
<path d="M76.0312 441.717L77.0652 450.426C77.0652 450.426 83.0084 453.19 87.0653 450.078L84.604 440.373L76.0312 441.717Z" fill="url(#paint35_linear)"/>
<path d="M74.3718 272.263C73.9246 274.621 75.1721 395.763 87.0653 447.433C87.2586 448.276 88.4893 449.93 88.0656 450.656C87.0334 452.42 79.4341 451.925 75.1486 452.074C73.8221 452.121 73.1092 450.564 72.7343 449.243C69.3348 437.254 53.0452 377.19 50.9201 319.813C48.5462 255.699 50.9201 317.63 50.9201 317.63L49.8643 277.011L74.3718 272.263Z" fill="#150B82"/>
<path d="M38.0598 449.792C38.0598 449.792 36.012 453.468 34.0298 463.233C33.6717 464.996 34.9041 466.685 36.6963 466.861C39.8671 467.172 44.7478 467.574 48.6567 467.547C50.459 467.535 51.8662 465.966 51.6476 464.177C51.2139 460.613 49.8655 454.765 45.6977 450.206L38.0598 449.792Z" fill="url(#paint36_linear)"/>
<path d="M36.2617 438.592L38.6777 451.76C38.6777 451.76 41.0651 453.536 45.7894 452.249L44.636 438.081L36.2617 438.592Z" fill="url(#paint37_linear)"/>
<path d="M30.4565 276.988C20.7305 338.231 31.8469 433.054 35.8382 450.693C36.082 451.773 36.9175 452.6 37.9666 452.781C39.7488 453.089 42.6826 453.341 45.5743 452.465C46.5713 452.163 47.2707 451.225 47.311 450.145C47.8474 435.884 46.8823 348.335 55.9459 313.736C56.4049 311.983 57.4322 310.454 58.8511 309.4L73.7655 297.25L74.0429 271.053L30.4565 276.988Z" fill="url(#paint38_linear)"/>
<path d="M86.1856 178.737C60.5515 178.314 32.2662 185.466 32.2662 185.466C25.9682 222.201 28.4968 262.915 29.8082 276.322C30.0772 279.071 28.6061 281.98 31.3331 282.42C44.7461 284.586 65.829 282.382 72.3791 280.479C74.7732 279.783 74.3664 277.236 74.8758 274.796C79.2739 253.709 91.8514 207.203 91.8514 207.203C97.9493 215.042 106.551 226.013 119.269 228.932C112.788 221.422 125.219 205.674 123.893 200.026C112.393 187.113 94.0925 178.866 86.1856 178.737Z" fill="#698DF1"/>
<path d="M60.2206 157.934L52.0649 181.511C51.9304 181.901 52.0901 182.335 52.4516 182.535C54.6742 183.763 62.6853 187.316 72.3391 181.197C73.3445 180.56 74.0287 179.52 74.1817 178.34L76.823 157.934H60.2206Z" fill="url(#paint39_linear)"/>
<path d="M77.9679 136.102C77.9679 136.102 86.9239 152.954 85.7773 159.761C84.629 166.569 73.5294 166.08 63.8353 160.551L57.0615 142.355L77.9679 136.102Z" fill="url(#paint40_linear)"/>
<path d="M64.2627 151.614C64.6561 151.439 64.8024 150.957 64.5654 150.597C63.8475 149.502 62.5025 147.267 62.0737 145.309C62.0737 145.309 60.4631 144.279 66.1726 142.913C69.2813 142.168 74.7907 141.553 77.2134 139.32C79.9236 136.821 74.9269 132.097 72.8253 130.83C70.053 129.156 66.677 128.166 63.5499 129.01C62.0401 129.416 60.6749 130.223 59.3316 131.02C57.0418 132.377 54.6729 133.809 53.2169 136.038C52.2737 137.479 51.7811 139.162 51.3289 140.824C50.6799 143.212 50.0847 145.657 50.1974 148.129C50.4983 154.715 58.2203 160.615 64.4292 161.336C64.9369 161.395 65.3303 160.894 65.1639 160.41L62.6252 153.034C62.5075 152.691 62.6706 152.317 63.0018 152.169L64.2627 151.614Z" fill="url(#paint41_linear)"/>
<path d="M65.2825 152.661C65.2825 152.661 58.9055 148.289 58.4398 151.971C57.9741 155.654 64.183 157.304 67.258 155.932L65.2825 152.661Z" fill="url(#paint42_linear)"/>
<path d="M81.2294 131.967C68.1442 107.262 34.2301 129.705 50.0136 150.517C61.7488 142.719 75.0105 131.124 81.2294 131.967Z" fill="url(#paint43_linear)"/>
<path d="M60.7927 142.434L84.2898 141.708C84.8867 141.689 85.4314 141.36 85.7206 140.837C87.8255 137.038 90.9056 134.618 94.7573 133.288C95.2449 133.12 95.144 132.403 94.6295 132.367L80.2246 131.388C80.2078 131.386 80.1926 131.386 80.1758 131.388C72.9969 131.939 66.6417 136.256 60.5791 141.913C60.3757 142.101 60.5153 142.442 60.7927 142.434Z" fill="url(#paint44_linear)"/>
<path d="M35.1697 222.86C49.5175 206.759 48.0632 194.366 31.8694 185.444C31.8694 185.444 5.02656 203.674 0.613281 226.787C5.68561 227.16 14.914 228.48 23.9474 233.039C25.9329 222.124 35.1697 222.86 35.1697 222.86Z" fill="#698DF1"/>
<path d="M66.3491 239.43C66.3491 239.43 36.2126 256.455 26.0427 241.917C23.9311 238.899 23.4267 235.899 23.9462 233.039C14.9129 228.48 5.68447 227.161 0.612134 226.788C-0.719417 233.755 -0.0149722 241.166 4.08056 248.656C21.8917 281.224 70.3353 246.856 70.3353 246.856L66.3491 239.43Z" fill="url(#paint45_linear)"/>
<path d="M62.7291 260.967L79.1768 203.555C79.3634 202.903 79.9199 202.427 80.5941 202.35C83.5733 202.002 92.2099 201.027 102.18 200.184C114.189 199.169 128.135 198.345 136.469 199.046C137.654 199.145 138.37 200.399 137.842 201.464C133.103 211.048 113.611 250.03 103.847 262.8C103.525 263.224 103.024 263.471 102.491 263.466L64.3297 263.111C63.2184 263.098 62.4231 262.034 62.7291 260.967Z" fill="url(#paint46_linear)"/>
<path d="M103.883 195.204L115.808 193.218C116.443 193.112 116.963 193.718 116.761 194.33L115.581 197.906C115.478 198.217 115.206 198.442 114.882 198.486L103.407 200.019C102.814 200.098 102.324 199.558 102.46 198.975L103.192 195.853C103.269 195.517 103.543 195.261 103.883 195.204Z" fill="url(#paint47_linear)"/>
<path d="M94.9533 205.295L95.9351 200.18C96.0343 199.667 96.458 199.279 96.9775 199.227L121.063 196.784C121.873 196.701 122.522 197.444 122.332 198.236L120.801 204.61C120.678 205.119 120.234 205.489 119.71 205.514L96.1738 206.699C95.4089 206.737 94.8087 206.048 94.9533 205.295Z" fill="url(#paint48_linear)"/>
<path d="M66.7019 247.096C66.7019 247.096 64.4104 237.678 65.3351 234.337C66.2598 230.997 68.0503 226.701 74.0187 227.656C79.9872 228.61 87.0282 231.123 87.0282 231.123C87.0282 231.123 86.6718 235.475 82.1358 234.07L84.9485 236.246C84.9485 236.246 84.5467 239.73 80.7151 237.87L83.3312 240.755C83.3312 240.755 81.6852 243.617 78.8658 241.782C76.048 239.945 74.6963 248.228 66.7019 247.096Z" fill="url(#paint49_linear)"/>
<path d="M57.1511 211.248C55.2698 211.399 39.3584 211.908 39.3584 211.908L40.0006 227.92L48.2438 232.567L57.1511 227.92V211.248Z" fill="url(#paint50_linear)"/>
<path d="M58.4156 211.248L39.3956 211.908L38.6172 218.052L48.5164 220.622L59.0393 215.935L58.4156 211.248Z" fill="url(#paint51_linear)"/>
<defs>
<linearGradient id="paint0_linear" x1="138.122" y1="276.28" x2="424.587" y2="276.28" gradientUnits="userSpaceOnUse">
<stop stop-color="#0354FF"/>
<stop offset="1" stop-color="#003EC0"/>
</linearGradient>
<linearGradient id="paint1_linear" x1="281.893" y1="6.70817" x2="269.345" y2="171.537" gradientUnits="userSpaceOnUse">
<stop stop-color="#1A0F91"/>
<stop offset="1" stop-color="#003EC0"/>
</linearGradient>
<linearGradient id="paint2_linear" x1="231.458" y1="28.5697" x2="335.363" y2="160.651" gradientUnits="userSpaceOnUse">
<stop stop-color="#09005D"/>
<stop offset="1" stop-color="#1A0F91"/>
</linearGradient>
<linearGradient id="paint3_linear" x1="244.413" y1="36.5362" x2="316.762" y2="164.286" gradientUnits="userSpaceOnUse">
<stop stop-color="#09005D"/>
<stop offset="1" stop-color="#1A0F91"/>
</linearGradient>
<linearGradient id="paint4_linear" x1="313.071" y1="137.405" x2="397.325" y2="341.679" gradientUnits="userSpaceOnUse">
<stop stop-color="#1A0F91"/>
<stop offset="1" stop-color="#003EC0"/>
</linearGradient>
<linearGradient id="paint5_linear" x1="311.115" y1="77.9575" x2="395.37" y2="282.231" gradientUnits="userSpaceOnUse">
<stop stop-color="#0C28AA"/>
<stop offset="1" stop-color="#003EC0"/>
</linearGradient>
<linearGradient id="paint6_linear" x1="310.213" y1="188.779" x2="394.468" y2="393.053" gradientUnits="userSpaceOnUse">
<stop stop-color="#1A0F91"/>
<stop offset="0.671727" stop-color="#003EC0"/>
</linearGradient>
<linearGradient id="paint7_linear" x1="312.423" y1="237.661" x2="388.567" y2="374.609" gradientUnits="userSpaceOnUse">
<stop offset="0.447917" stop-color="#1A0F91"/>
<stop offset="0.9999" stop-color="#003EC0"/>
<stop offset="1" stop-color="#FE7062"/>
</linearGradient>
<linearGradient id="paint8_linear" x1="446.309" y1="276.078" x2="351.276" y2="323.616" gradientUnits="userSpaceOnUse">
<stop stop-color="#407BFF"/>
<stop offset="1" stop-color="#003EC0"/>
</linearGradient>
<linearGradient id="paint9_linear" x1="250.522" y1="365.614" x2="299.435" y2="436.724" gradientUnits="userSpaceOnUse">
<stop stop-color="#09005D"/>
<stop offset="1" stop-color="#1A0F91"/>
</linearGradient>
<linearGradient id="paint10_linear" x1="248.762" y1="366.825" x2="297.675" y2="437.933" gradientUnits="userSpaceOnUse">
<stop stop-color="#09005D"/>
<stop offset="1" stop-color="#1A0F91"/>
</linearGradient>
<linearGradient id="paint11_linear" x1="246.639" y1="368.285" x2="295.552" y2="439.395" gradientUnits="userSpaceOnUse">
<stop stop-color="#09005D"/>
<stop offset="1" stop-color="#1A0F91"/>
</linearGradient>
<linearGradient id="paint12_linear" x1="242.966" y1="370.812" x2="291.879" y2="441.921" gradientUnits="userSpaceOnUse">
<stop stop-color="#09005D"/>
<stop offset="1" stop-color="#1A0F91"/>
</linearGradient>
<linearGradient id="paint13_linear" x1="240.545" y1="372.478" x2="289.458" y2="443.587" gradientUnits="userSpaceOnUse">
<stop stop-color="#09005D"/>
<stop offset="1" stop-color="#1A0F91"/>
</linearGradient>
<linearGradient id="paint14_linear" x1="239.041" y1="373.512" x2="287.953" y2="444.622" gradientUnits="userSpaceOnUse">
<stop stop-color="#09005D"/>
<stop offset="1" stop-color="#1A0F91"/>
</linearGradient>
<linearGradient id="paint15_linear" x1="253.04" y1="363.882" x2="301.953" y2="434.991" gradientUnits="userSpaceOnUse">
<stop stop-color="#09005D"/>
<stop offset="1" stop-color="#1A0F91"/>
</linearGradient>
<linearGradient id="paint16_linear" x1="244.563" y1="232.373" x2="180.958" y2="347.763" gradientUnits="userSpaceOnUse">
<stop stop-color="#003EC0"/>
<stop offset="1" stop-color="#4F52FF"/>
</linearGradient>
<linearGradient id="paint17_linear" x1="247.917" y1="271.9" x2="282.267" y2="321.838" gradientUnits="userSpaceOnUse">
<stop stop-color="#09005D"/>
<stop offset="1" stop-color="#1A0F91"/>
</linearGradient>
<linearGradient id="paint18_linear" x1="246.68" y1="272.75" x2="281.029" y2="322.689" gradientUnits="userSpaceOnUse">
<stop stop-color="#09005D"/>
<stop offset="1" stop-color="#1A0F91"/>
</linearGradient>
<linearGradient id="paint19_linear" x1="245.189" y1="273.776" x2="279.54" y2="323.714" gradientUnits="userSpaceOnUse">
<stop stop-color="#09005D"/>
<stop offset="1" stop-color="#1A0F91"/>
</linearGradient>
<linearGradient id="paint20_linear" x1="242.61" y1="275.55" x2="276.96" y2="325.488" gradientUnits="userSpaceOnUse">
<stop stop-color="#09005D"/>
<stop offset="1" stop-color="#1A0F91"/>
</linearGradient>
<linearGradient id="paint21_linear" x1="240.91" y1="276.72" x2="275.261" y2="326.656" gradientUnits="userSpaceOnUse">
<stop stop-color="#09005D"/>
<stop offset="1" stop-color="#1A0F91"/>
</linearGradient>
<linearGradient id="paint22_linear" x1="239.853" y1="277.446" x2="274.203" y2="327.385" gradientUnits="userSpaceOnUse">
<stop stop-color="#09005D"/>
<stop offset="1" stop-color="#1A0F91"/>
</linearGradient>
<linearGradient id="paint23_linear" x1="249.685" y1="270.684" x2="284.036" y2="320.622" gradientUnits="userSpaceOnUse">
<stop stop-color="#09005D"/>
<stop offset="1" stop-color="#1A0F91"/>
</linearGradient>
<linearGradient id="paint24_linear" x1="189.805" y1="366.315" x2="85.4652" y2="466.459" gradientUnits="userSpaceOnUse">
<stop stop-color="#1A0F91"/>
<stop offset="1" stop-color="#407BFF"/>
</linearGradient>
<linearGradient id="paint25_linear" x1="167.458" y1="394.004" x2="201.866" y2="444.026" gradientUnits="userSpaceOnUse">
<stop stop-color="#09005D"/>
<stop offset="1" stop-color="#1A0F91"/>
</linearGradient>
<linearGradient id="paint26_linear" x1="166.499" y1="394.879" x2="200.814" y2="444.765" gradientUnits="userSpaceOnUse">
<stop stop-color="#09005D"/>
<stop offset="1" stop-color="#1A0F91"/>
</linearGradient>
<linearGradient id="paint27_linear" x1="165.297" y1="395.893" x2="199.658" y2="445.847" gradientUnits="userSpaceOnUse">
<stop stop-color="#09005D"/>
<stop offset="1" stop-color="#1A0F91"/>
</linearGradient>
<linearGradient id="paint28_linear" x1="163.244" y1="397.698" x2="197.428" y2="447.394" gradientUnits="userSpaceOnUse">
<stop stop-color="#09005D"/>
<stop offset="1" stop-color="#1A0F91"/>
</linearGradient>
<linearGradient id="paint29_linear" x1="161.876" y1="398.857" x2="196.097" y2="448.607" gradientUnits="userSpaceOnUse">
<stop stop-color="#09005D"/>
<stop offset="1" stop-color="#1A0F91"/>
</linearGradient>
<linearGradient id="paint30_linear" x1="161.02" y1="399.565" x2="195.38" y2="449.516" gradientUnits="userSpaceOnUse">
<stop stop-color="#09005D"/>
<stop offset="1" stop-color="#1A0F91"/>
</linearGradient>
<linearGradient id="paint31_linear" x1="168.872" y1="392.831" x2="203.136" y2="442.642" gradientUnits="userSpaceOnUse">
<stop stop-color="#09005D"/>
<stop offset="1" stop-color="#1A0F91"/>
</linearGradient>
<linearGradient id="paint32_linear" x1="215.796" y1="94.5373" x2="11.152" y2="356.48" gradientUnits="userSpaceOnUse">
<stop stop-color="#FEBBBA"/>
<stop offset="1" stop-color="#FF928E"/>
</linearGradient>
<linearGradient id="paint33_linear" x1="239.333" y1="162.963" x2="124.07" y2="310.498" gradientUnits="userSpaceOnUse">
<stop stop-color="#FEBBBA"/>
<stop offset="1" stop-color="#FF928E"/>
</linearGradient>
<linearGradient id="paint34_linear" x1="103.188" y1="430.524" x2="95.6264" y2="467.317" gradientUnits="userSpaceOnUse">
<stop stop-color="#4F52FF"/>
<stop offset="1" stop-color="#4042E2"/>
</linearGradient>
<linearGradient id="paint35_linear" x1="76.0304" y1="445.964" x2="87.0649" y2="445.964" gradientUnits="userSpaceOnUse">
<stop stop-color="#FEBBBA"/>
<stop offset="1" stop-color="#FF928E"/>
</linearGradient>
<linearGradient id="paint36_linear" x1="42.519" y1="432.44" x2="42.8627" y2="468.888" gradientUnits="userSpaceOnUse">
<stop stop-color="#4F52FF"/>
<stop offset="1" stop-color="#4042E2"/>
</linearGradient>
<linearGradient id="paint37_linear" x1="36.2621" y1="445.399" x2="45.7895" y2="445.399" gradientUnits="userSpaceOnUse">
<stop stop-color="#FEBBBA"/>
<stop offset="1" stop-color="#FF928E"/>
</linearGradient>
<linearGradient id="paint38_linear" x1="7.04349" y1="152.775" x2="62.7603" y2="395.059" gradientUnits="userSpaceOnUse">
<stop stop-color="#09005D"/>
<stop offset="1" stop-color="#1A0F91"/>
</linearGradient>
<linearGradient id="paint39_linear" x1="52.0158" y1="171.307" x2="76.8219" y2="171.307" gradientUnits="userSpaceOnUse">
<stop stop-color="#FEBBBA"/>
<stop offset="1" stop-color="#FF928E"/>
</linearGradient>
<linearGradient id="paint40_linear" x1="82.7218" y1="155.533" x2="55.454" y2="138.894" gradientUnits="userSpaceOnUse">
<stop stop-color="#FEBBBA"/>
<stop offset="1" stop-color="#FF928E"/>
</linearGradient>
<linearGradient id="paint41_linear" x1="44.3303" y1="128.354" x2="73.9388" y2="151.751" gradientUnits="userSpaceOnUse">
<stop stop-color="#09005D"/>
<stop offset="1" stop-color="#1A0F91"/>
</linearGradient>
<linearGradient id="paint42_linear" x1="75.5575" y1="161.734" x2="51.0244" y2="146.764" gradientUnits="userSpaceOnUse">
<stop stop-color="#FEBBBA"/>
<stop offset="1" stop-color="#FF928E"/>
</linearGradient>
<linearGradient id="paint43_linear" x1="1475.8" y1="1357.47" x2="1523.01" y2="1398.26" gradientUnits="userSpaceOnUse">
<stop stop-color="#09005D"/>
<stop offset="1" stop-color="#1A0F91"/>
</linearGradient>
<linearGradient id="paint44_linear" x1="90.4974" y1="126.508" x2="43.29" y2="167.297" gradientUnits="userSpaceOnUse">
<stop stop-color="#09005D"/>
<stop offset="1" stop-color="#1A0F91"/>
</linearGradient>
<linearGradient id="paint45_linear" x1="0.00165491" y1="244.733" x2="70.3376" y2="244.733" gradientUnits="userSpaceOnUse">
<stop stop-color="#FEBBBA"/>
<stop offset="1" stop-color="#FF928E"/>
</linearGradient>
<linearGradient id="paint46_linear" x1="196.007" y1="140.757" x2="145.108" y2="185.739" gradientUnits="userSpaceOnUse">
<stop stop-color="white"/>
<stop offset="1" stop-color="white"/>
</linearGradient>
<linearGradient id="paint47_linear" x1="108.201" y1="202.848" x2="99.9717" y2="239.003" gradientUnits="userSpaceOnUse">
<stop stop-color="#FF928E"/>
<stop offset="1" stop-color="#FE7062"/>
</linearGradient>
<linearGradient id="paint48_linear" x1="106.107" y1="216.985" x2="102.171" y2="240.611" gradientUnits="userSpaceOnUse">
<stop stop-color="#FF928E"/>
<stop offset="1" stop-color="#FE7062"/>
</linearGradient>
<linearGradient id="paint49_linear" x1="65.1153" y1="237.361" x2="87.0279" y2="237.361" gradientUnits="userSpaceOnUse">
<stop stop-color="#FEBBBA"/>
<stop offset="1" stop-color="#FF928E"/>
</linearGradient>
<linearGradient id="paint50_linear" x1="45.1497" y1="167.179" x2="50.5115" y2="249.25" gradientUnits="userSpaceOnUse">
<stop stop-color="#09005D"/>
<stop offset="1" stop-color="#1A0F91"/>
</linearGradient>
<linearGradient id="paint51_linear" x1="11.3694" y1="162.892" x2="46.7675" y2="212.258" gradientUnits="userSpaceOnUse">
<stop stop-color="#09005D"/>
<stop offset="1" stop-color="#1A0F91"/>
</linearGradient>
</defs>
</svg>
