<svg width="455" height="271" viewBox="0 0 455 271" fill="none" xmlns="http://www.w3.org/2000/svg">
<path d="M96.4844 47.2432C114.556 31.1455 127.829 40.7465 137.713 51.4783C145.591 60.0332 146.692 61.9263 153.201 70.7904C154.167 72.1075 154.912 73.5686 154.942 75.1992C155.124 84.995 160.138 126.423 154.565 140.716C148.068 157.377 67.9609 165.001 67.9609 165.001L96.4844 47.2432Z" fill="#303C60"/>
<path d="M147.789 150.203C147.352 150.203 146.988 149.86 146.963 149.419C146.942 148.966 147.289 148.576 147.746 148.555C150.122 148.437 152.058 147.365 153.663 145.29C162.645 133.652 157.593 94.8032 153.193 73.6784C153.1 73.2338 153.388 72.7933 153.832 72.7001C154.277 72.607 154.717 72.895 154.811 73.3396C155.772 77.9517 158.986 94.3289 159.986 111.384C161.015 128.9 159.329 140.648 154.967 146.298C153.078 148.746 150.677 150.063 147.827 150.207C147.818 150.203 147.801 150.203 147.789 150.203Z" fill="#303C60"/>
<path d="M103.265 42.4404C68.5283 61.6424 89.7081 126.596 45.6544 149.75C33.4488 156.166 -4.04889 188.721 20.5232 231.644C36.5955 259.723 84.626 253.671 100.44 228.819C116.254 203.972 103.265 42.4404 103.265 42.4404Z" fill="#303C60"/>
<path d="M10.8255 190.114C10.7873 190.114 10.7535 190.11 10.7154 190.106C10.2622 190.047 9.94456 189.632 10.0081 189.178C10.0377 188.95 10.7958 183.482 14.2601 176.236C17.4534 169.557 23.6494 160.075 35.0461 152.82C55.4297 139.848 68.9609 127.625 84.9569 67.3595C85.0755 66.9191 85.5287 66.6565 85.9649 66.7751C86.4053 66.8937 86.6679 67.3426 86.5493 67.783C78.8203 96.9037 71.1547 116.589 62.4261 129.734C54.3243 141.944 45.9854 147.81 35.927 154.209C14.7514 167.685 11.6683 189.174 11.6386 189.39C11.5878 189.809 11.2363 190.114 10.8255 190.114Z" fill="#303C60"/>
<path d="M11.5879 173.292C11.4354 173.292 11.2829 173.25 11.1474 173.165C10.762 172.924 10.6477 172.411 10.8891 172.026C15.9246 164.051 22.3408 157.512 29.9556 152.587C58.5807 134.075 63.3198 123.432 86.9602 62.4721C87.1254 62.0485 87.604 61.8368 88.0275 62.002C88.451 62.1671 88.6628 62.6457 88.4976 63.0692C76.6774 93.5451 69.6132 111.405 61.8841 124.063C53.5833 137.658 44.2194 145.324 30.8492 153.972C23.4377 158.766 17.1867 165.135 12.2824 172.907C12.13 173.157 11.8589 173.292 11.5879 173.292Z" fill="#303C60"/>
<path d="M102.067 82.9746C90.1066 107.814 91.9489 130.353 91.9489 130.353C91.9489 130.353 93.3295 139.094 98.8479 140.932C104.366 142.77 112.188 137.252 111.727 129.891C111.265 122.531 113.565 104.595 116.326 98.1533C119.083 91.7117 102.067 82.9746 102.067 82.9746Z" fill="#FBCFAE"/>
<path d="M38.8789 255.556C39.6328 262.332 37.9387 261.769 43.961 262.899C49.9834 264.03 60.7152 259.888 60.7152 259.888L48.6663 237.484L38.8789 255.556Z" fill="#6791C9"/>
<path d="M93.3888 117.012C90.0007 128.024 64.5858 119.553 55.6921 122.094C46.7983 124.635 39.1709 161.909 37.9004 195.375C36.6298 228.84 38.3239 255.522 41.712 259.757C45.1 263.992 101.012 265.686 106.094 263.992C111.176 262.298 63.7388 241.118 63.7388 241.118C63.7388 241.118 60.7742 202.151 64.5858 182.241C68.3974 162.332 102.706 136.07 102.706 136.07L93.3888 117.012Z" fill="#FBCFAE"/>
<path d="M105.247 120.4C114.141 133.952 137.439 132.258 145.485 143.274C153.532 154.285 170.477 214.86 170.477 214.86L188.268 153.442C188.268 153.442 202.697 151.02 198.009 161.065C189.674 178.938 186.57 236.59 177.532 244.781C167.482 253.887 157.483 246.475 151.838 230.53C146.379 215.106 132.776 181.818 123.035 169.112C113.294 156.407 102.702 136.074 102.702 136.074L105.247 120.4Z" fill="#FBCFAE"/>
<path d="M66.7031 122.094C84.4948 142.85 119.227 142.003 126.85 139.462C134.473 136.921 134.473 136.921 134.473 136.921C134.473 136.921 140.403 134.804 145.485 140.733C150.567 146.662 162.853 183.939 164.97 192.41C167.088 200.88 170.476 214.86 170.476 214.86C170.476 214.86 161.388 225.765 161.388 236.781C161.388 247.792 165.246 247.89 165.246 247.89C165.246 247.89 153.955 245.357 151.414 238.581C148.873 231.805 125.999 170.383 125.999 170.383L62.8872 171.653L63.7343 241.122C63.7343 241.122 58.2286 236.04 50.6054 241.122C42.9822 246.204 40.4411 258.067 41.7117 259.761C42.9822 261.455 39.1706 261.455 39.1706 260.184C39.1706 258.914 31.9709 227.993 37.053 177.163C42.1352 126.333 51.8759 120.828 57.3858 120.404C62.8915 119.976 66.7031 122.094 66.7031 122.094Z" fill="#0243CC"/>
<path d="M162.666 247.01C162.785 247.048 162.857 247.052 162.857 247.052C162.857 247.052 162.785 247.035 162.666 247.01Z" fill="#6791C9"/>
<path d="M165.11 216.398C161.438 217.528 155.225 230.517 155.225 230.517C155.225 230.517 141.105 199.737 136.87 157.093L131.83 186.023C138.788 204.704 149.707 234.016 151.417 238.577C153.743 244.777 163.119 247.365 164.402 247.649C164.051 247.53 163.276 247.06 162.632 245.201C162.259 244.862 160.142 243.871 159.744 243.507C156.356 240.402 157.766 233.059 160.027 224.868C162.285 216.681 168.781 215.267 165.11 216.398Z" fill="#6791C9"/>
<path d="M65.9288 171.59L58.9282 139.585C51.305 150.317 50.458 187.027 53.5623 212.162C56.1118 232.774 59.9192 238.123 62.5408 240.271C63.3158 240.728 63.7393 241.118 63.7393 241.118L62.8923 171.649L65.9288 171.59Z" fill="#6791C9"/>
<path d="M45.6543 139.301C58.6434 174.317 52.151 181.377 69.2439 222.479C78.7899 245.433 97.1999 262.721 97.1999 262.721C97.1999 262.721 112.027 266.533 130.662 265.262C149.3 263.992 162.942 262.713 162.942 262.713C162.942 262.713 143.367 250.863 142.52 242.816C141.673 234.769 137.997 202.845 142.795 180.255C146.543 162.611 131.081 144.972 131.081 144.972L105.242 143.702L45.6543 139.301Z" fill="#0243CC"/>
<path opacity="0.5" d="M68.5281 192.96C66.2707 184.77 78.1291 195.501 97.6148 197.479C117.101 199.457 138.844 196.348 128.116 199.737C117.384 203.125 88.0138 198.042 93.3797 208.774C99.6943 221.403 107.152 233.626 117.948 240.97C125.008 245.772 141.952 250.287 125.571 247.746C109.194 245.205 91.6814 226.003 84.0582 213.577C76.435 201.147 69.032 194.786 68.5281 192.96Z" fill="#6791C9"/>
<path d="M111.676 126.664C111.85 118.21 113.908 103.781 116.322 98.1487C118.3 93.5366 110.126 87.743 105.328 84.825L101.271 84.6514C100.652 85.9981 100.072 87.3364 99.5342 88.6662C95.2525 116.779 108.068 128.396 114.179 130.734C116.818 131.742 119.774 131.856 122.302 131.627C118.533 130.289 114.853 128.76 111.676 126.664Z" fill="#FFD0AD"/>
<path d="M103.917 139.166C102.448 139.166 100.923 138.988 99.407 138.62C95.8749 137.76 87.4428 134.482 85.4819 122.721C85.4396 122.467 85.6132 122.225 85.8673 122.183C86.1215 122.141 86.3628 122.314 86.4052 122.569C88.2729 133.783 96.2773 136.896 99.6315 137.713C104.841 138.984 110.372 137.806 112.494 134.977C114.196 132.707 113.175 127.875 113.163 127.829C113.108 127.574 113.269 127.329 113.518 127.274C113.768 127.219 114.018 127.38 114.073 127.634C114.12 127.85 115.196 132.932 113.239 135.545C111.502 137.849 107.924 139.166 103.917 139.166Z" fill="#F5CE5C"/>
<path d="M143.778 94.0243C140.907 109.199 134.27 121.438 123.039 119.13C111.807 116.822 100.004 100.796 103.113 85.6727C106.221 70.5448 117.842 60.1561 129.074 62.46C140.301 64.7639 147.607 73.8059 143.778 94.0243Z" fill="#FBCFAE"/>
<path d="M183.749 168.956C183.749 168.956 162.993 224.728 162.006 230.518C161.02 236.307 162.993 239.979 163.561 239.979C164.124 239.979 181.776 209.761 181.776 209.761L183.749 168.956Z" fill="#FBCFAE"/>
<path d="M184.596 166.508C186.291 160.858 183.656 153.705 183.656 153.705L191.186 154.645L184.596 166.508Z" fill="#FBCFAE"/>
<path d="M192.867 156.873H171.852C170.578 156.873 169.663 155.645 170.027 154.421L183.291 109.944C183.533 109.135 184.274 108.584 185.117 108.584H206.131C207.406 108.584 208.321 109.813 207.957 111.037L194.692 155.51C194.455 156.323 193.71 156.873 192.867 156.873Z" fill="#4381DB"/>
<path d="M195.506 156.873H174.491C173.216 156.873 172.301 155.645 172.666 154.421L185.93 109.944C186.171 109.135 186.913 108.584 187.755 108.584H208.766C210.041 108.584 210.955 109.813 210.591 111.037L197.327 155.51C197.09 156.323 196.348 156.873 195.506 156.873Z" fill="#2E5B9A"/>
<path d="M180.293 124.636C178.053 132.708 176.545 139.336 176.926 139.442C177.307 139.548 179.429 133.089 181.669 125.017C183.91 116.945 185.418 110.317 185.036 110.211C184.655 110.11 182.533 116.568 180.293 124.636Z" fill="#9CBEED"/>
<path d="M194.574 170.087C195.196 162.751 201.549 155.878 203.963 153.684C204.7 153.019 205.111 152.07 205.102 151.079C205.068 147.424 204.903 138.793 204.149 137.785C203.188 136.502 200.778 119.977 199.656 120.62C198.534 121.26 199.978 135.702 199.978 135.702C199.978 135.702 197.25 134.418 195.806 133.779C194.362 133.135 188.424 139.717 188.424 139.717C188.424 139.717 185.642 146.747 193.252 143.736C202.29 140.157 195.51 150.135 189.487 156.538C184.524 161.811 188.746 162.98 188.746 162.98L192.757 162.819L194.574 170.087Z" fill="#FBCFAE"/>
<path d="M192.296 175.855C191.631 175.855 190.877 175.753 190.119 175.516C188.166 174.906 184.753 172.941 183.851 166.622C183.813 166.368 183.991 166.131 184.249 166.093C184.507 166.059 184.74 166.232 184.778 166.491C185.549 171.895 188.171 173.868 190.233 174.571C191.919 175.147 193.312 174.88 193.664 174.686C193.685 174.525 193.791 174.381 193.952 174.313C194.193 174.216 194.464 174.334 194.561 174.576C194.655 174.813 194.6 175.075 194.413 175.279C194.083 175.626 193.287 175.855 192.296 175.855Z" fill="#F5CE5C"/>
<path d="M191.508 174.038C190.885 174.038 190.233 173.991 189.615 173.902C185.985 173.373 183.55 171.531 182.94 168.845C182.881 168.596 183.042 168.341 183.292 168.286C183.546 168.231 183.796 168.388 183.851 168.638C184.435 171.2 186.764 172.289 188.615 172.75C191.211 173.398 193.646 173 193.939 172.661C194.066 172.437 194.345 172.361 194.574 172.488C194.798 172.615 194.875 172.907 194.748 173.131C194.396 173.758 193.032 174.038 191.508 174.038Z" fill="#F5CE5C"/>
<path d="M130.886 101.918C130.658 101.918 130.425 101.901 130.196 101.867C126.634 101.321 124.479 96.7261 125.296 91.4025C125.673 88.9334 126.655 86.6931 128.053 85.0964C129.544 83.3981 131.335 82.6104 133.105 82.8815C136.667 83.4278 138.823 88.0229 138.005 93.3464C137.243 98.3227 134.194 101.918 130.886 101.918ZM132.428 84.4781C131.365 84.4781 130.268 85.071 129.294 86.1806C128.1 87.5443 127.261 89.484 126.926 91.6482C126.274 95.9087 127.884 99.8389 130.446 100.233C133.004 100.627 135.719 97.3571 136.371 93.0966C137.023 88.836 135.414 84.9058 132.851 84.512C132.712 84.4908 132.572 84.4781 132.428 84.4781Z" fill="white"/>
<path d="M142.635 101.94C142.521 101.94 142.411 101.931 142.296 101.914C139.963 101.559 138.696 97.6029 139.416 92.9146C140.136 88.2264 142.529 84.8256 144.859 85.1898C146.061 85.3719 147.006 86.473 147.522 88.2899C147.993 89.9374 148.069 92.0337 147.738 94.1894C147.057 98.6532 144.859 101.94 142.635 101.94ZM144.511 86.418C143.135 86.418 141.267 89.0649 140.649 93.1095C140.005 97.3107 141.102 100.474 142.487 100.686C143.88 100.889 145.862 98.2085 146.506 94.0073C146.811 92.0253 146.743 90.1195 146.324 88.6372C145.955 87.3412 145.35 86.5366 144.672 86.4307C144.617 86.4222 144.566 86.418 144.511 86.418Z" fill="white"/>
<path d="M126.985 87.8874C126.909 87.8874 126.833 87.8789 126.757 87.8535L99.0802 79.9465C98.6397 79.8195 98.3899 79.3621 98.5127 78.9259C98.6355 78.4854 99.0929 78.2356 99.5333 78.3584L127.21 86.2653C127.65 86.3924 127.9 86.8498 127.777 87.286C127.676 87.6502 127.345 87.8874 126.985 87.8874Z" fill="white"/>
<path d="M146.751 70.6801C103.921 95.9087 101.566 78.964 101.566 78.964L104.107 54.8662L129.522 56.2765L146.751 70.6801Z" fill="#303C60"/>
<path d="M104.882 84.5627C105.877 88.8275 104.518 92.7915 101.841 93.4141C99.1648 94.0409 96.1917 91.089 95.1923 86.8242C94.197 82.5595 95.5565 78.5954 98.2331 77.9686C100.91 77.3461 103.887 80.2979 104.882 84.5627Z" fill="#FBCFAE"/>
<path d="M101.948 90.1656C101.948 91.0973 101.194 91.8512 100.263 91.8512C99.331 91.8512 98.5771 91.0973 98.5771 90.1656C98.5771 89.2339 99.331 88.48 100.263 88.48C101.194 88.4758 101.948 89.2339 101.948 90.1656Z" fill="#F5CE5C"/>
<path d="M432.363 270.4H3.92595C1.75758 270.4 0 268.642 0 266.474C0 264.305 1.75758 262.548 3.92595 262.548H432.363C434.531 262.548 436.289 264.305 436.289 266.474C436.289 268.638 434.531 270.4 432.363 270.4Z" fill="#2E5B9A"/>
<path d="M105.484 261.79C105.484 261.79 89.3312 261.993 89.1279 263.424C88.9246 264.856 89.742 265.47 95.4636 266.491C101.19 267.511 165.589 267.922 166.203 267.511C166.817 267.105 185.625 262.603 185.625 262.603L140.441 261.79H105.484Z" fill="#DBE5EB"/>
<path d="M114.276 251.041C114.276 251.041 125.855 245.958 129.243 248.216C132.631 250.473 142.423 260.832 142.423 260.832L114.276 251.041Z" fill="#FBCFAE"/>
<path d="M141.783 261.751C141.563 262.027 141.237 262.141 141.05 262.005L117.228 244.269C115.945 243.312 115.335 241.851 115.953 241.08C116.571 240.309 118.13 240.584 119.345 241.626L141.876 260.981C142.046 261.129 142.003 261.476 141.783 261.751Z" fill="#2E5B9A"/>
<path d="M79.2599 248.873C79.2599 248.873 98.4619 256.496 100.723 256.496C102.981 256.496 115.597 248.026 119.832 249.152C124.067 250.283 144.777 260.731 144.214 261.578C143.651 262.425 137.717 264.403 120.209 263.835C102.701 263.272 74.1777 260.731 74.1777 260.731L79.2599 248.873Z" fill="#FBCFAE"/>
<path d="M319.564 262.869H241.295C240.135 262.869 239.19 261.921 239.19 260.765V248.415C239.19 247.259 240.139 246.31 241.295 246.31H319.564C322.47 246.31 324.85 248.69 324.85 251.596V257.588C324.846 260.493 322.47 262.869 319.564 262.869Z" fill="#F37168"/>
<path d="M313.509 249.114H239.2C238.679 249.978 238.374 250.986 238.374 252.061V257.122C238.374 258.198 238.679 259.206 239.2 260.07H313.513C316.152 260.07 318.312 257.91 318.312 255.272V253.912C318.308 251.274 316.152 249.114 313.509 249.114Z" fill="#F2E5DE"/>
<path d="M316.943 246.31H257.423C256.639 246.31 256 245.67 256 244.887V237.713C256 236.929 256.639 236.29 257.423 236.29H316.943C318.904 236.29 320.509 237.895 320.509 239.856V242.74C320.509 244.705 318.904 246.31 316.943 246.31Z" fill="#7BCEE8"/>
<path d="M311.971 237.988H256.008C255.614 238.509 255.386 239.119 255.386 239.771V242.833C255.386 243.485 255.614 244.095 256.008 244.616H311.971C313.957 244.616 315.584 243.312 315.584 241.715V240.894C315.584 239.297 313.957 237.988 311.971 237.988Z" fill="#F2E5DE"/>
<path d="M327.126 33.7327H263.645C261.621 33.7327 260.567 32.0768 261.303 30.0524L270.9 3.68032C271.637 1.65593 273.894 0 275.919 0H339.399C341.423 0 342.478 1.65593 341.741 3.68032L332.14 30.0524C331.407 32.0768 329.146 33.7327 327.126 33.7327Z" fill="#1E7FFF"/>
<path d="M324.969 30.9749H267.803C266.05 30.9749 265.139 29.5392 265.775 27.7859L273.724 5.94539C274.363 4.19205 276.316 2.75635 278.069 2.75635H335.235C336.988 2.75635 337.899 4.19205 337.263 5.94539L329.314 27.7859C328.679 29.5392 326.722 30.9749 324.969 30.9749Z" fill="white"/>
<path d="M288.836 32.1992C283.572 46.1031 275.466 50.3933 275.466 50.3933C275.466 50.3933 281.23 42.4185 280.396 38.5349C279.561 34.6513 276.474 33.0124 276.474 33.0124L288.836 32.1992Z" fill="#1E7FFF"/>
<path d="M329.564 10.5283H292.715C292.109 10.5283 291.796 10.0328 292.016 9.43141L292.033 9.38059C292.253 8.77497 292.926 8.28369 293.532 8.28369H330.382C330.987 8.28369 331.301 8.7792 331.08 9.38059L331.064 9.43141C330.843 10.0328 330.166 10.5283 329.564 10.5283Z" fill="#1E7FFF"/>
<path d="M327.854 15.2295H291C290.394 15.2295 290.081 14.734 290.301 14.1326L290.318 14.0818C290.538 13.4761 291.211 12.9849 291.817 12.9849H328.667C329.272 12.9849 329.586 13.4804 329.366 14.0818L329.349 14.1326C329.133 14.7382 328.455 15.2295 327.854 15.2295Z" fill="#1E7FFF"/>
<path d="M325.919 20.5483H289.069C288.463 20.5483 288.15 20.0528 288.37 19.4514L288.387 19.4006C288.607 18.795 289.281 18.3037 289.886 18.3037H326.736C327.342 18.3037 327.655 18.7992 327.435 19.4006L327.418 19.4514C327.198 20.0528 326.524 20.5483 325.919 20.5483Z" fill="#1E7FFF"/>
<path d="M286.964 14.3107C285.507 18.3172 281.67 21.5697 278.392 21.5697C275.118 21.5697 273.644 18.3214 275.105 14.3107C276.567 10.3043 280.404 7.05176 283.677 7.05176C286.955 7.05176 288.425 10.3043 286.964 14.3107Z" fill="#1E7FFF"/>
<path d="M291.041 102.325H287.895C287.23 102.325 286.887 101.787 287.128 101.122L288.073 98.5304C288.314 97.8655 289.047 97.3276 289.711 97.3276H292.858C293.523 97.3276 293.866 97.8655 293.625 98.5304L292.68 101.122C292.439 101.783 291.706 102.325 291.041 102.325Z" fill="#1E7FFF"/>
<path d="M301.134 102.325H297.987C297.322 102.325 296.979 101.787 297.221 101.122L298.165 98.5304C298.407 97.8655 299.144 97.3276 299.804 97.3276H302.951C303.616 97.3276 303.959 97.8655 303.718 98.5304L302.773 101.122C302.536 101.783 301.799 102.325 301.134 102.325Z" fill="#1E7FFF"/>
<path d="M311.231 102.325H308.084C307.419 102.325 307.076 101.787 307.318 101.122L308.262 98.5304C308.503 97.8655 309.236 97.3276 309.901 97.3276H313.048C313.713 97.3276 314.056 97.8655 313.814 98.5304L312.87 101.122C312.628 101.783 311.896 102.325 311.231 102.325Z" fill="#1E7FFF"/>
<path d="M251.046 82.3904H187.565C185.541 82.3904 184.486 80.7345 185.223 78.7101L194.824 52.338C195.561 50.3136 197.819 48.6577 199.843 48.6577H263.323C265.348 48.6577 266.402 50.3136 265.665 52.338L256.064 78.7101C255.327 80.7345 253.07 82.3904 251.046 82.3904Z" fill="#1E7FFF"/>
<path d="M248.894 79.6287H191.728C189.975 79.6287 189.064 78.193 189.699 76.4397L197.649 54.5992C198.288 52.8459 200.245 51.4102 201.998 51.4102H259.164C260.917 51.4102 261.828 52.8459 261.192 54.5992L253.243 76.4397C252.604 78.1973 250.647 79.6287 248.894 79.6287Z" fill="white"/>
<path d="M190.78 80.8569C185.927 94.7608 190.903 99.051 190.903 99.051C190.903 99.051 190.941 91.0763 194.604 87.1927C198.268 83.3091 202.541 81.6743 202.541 81.6743L190.78 80.8569Z" fill="#1E7FFF"/>
<path d="M233.377 61.0286H202.283C201.728 61.0286 201.436 60.5712 201.639 60.0164L201.719 59.792C201.923 59.2372 202.545 58.7798 203.1 58.7798H234.194C234.749 58.7798 235.041 59.2372 234.838 59.792L234.758 60.0164C234.554 60.5712 233.936 61.0286 233.377 61.0286Z" fill="#1E7FFF"/>
<path d="M231.665 65.7293H200.571C200.016 65.7293 199.724 65.2719 199.927 64.7171L200.007 64.4927C200.211 63.9379 200.833 63.4805 201.388 63.4805H232.482C233.037 63.4805 233.329 63.9379 233.126 64.4927L233.046 64.7171C232.842 65.2719 232.224 65.7293 231.665 65.7293Z" fill="#1E7FFF"/>
<path d="M229.729 71.0443H198.635C198.08 71.0443 197.788 70.5869 197.991 70.0321L198.072 69.8076C198.275 69.2528 198.898 68.7954 199.453 68.7954H230.547C231.102 68.7954 231.394 69.2528 231.191 69.8076L231.11 70.0321C230.907 70.5911 230.288 71.0443 229.729 71.0443Z" fill="#1E7FFF"/>
<path d="M308.868 112.239H247.602C246.505 112.239 245.934 111.782 246.332 111.227L246.493 111.002C246.891 110.443 248.115 109.99 249.212 109.99H310.481C311.578 109.99 312.15 110.443 311.747 111.002L311.586 111.227C311.188 111.786 309.964 112.239 308.868 112.239Z" fill="#1E7FFF"/>
<path d="M305.496 120.007H244.226C243.129 120.007 242.558 119.549 242.96 118.994L243.121 118.77C243.519 118.215 244.743 117.758 245.84 117.758H307.109C308.206 117.758 308.778 118.215 308.376 118.77L308.215 118.994C307.817 119.554 306.593 120.007 305.496 120.007Z" fill="#1E7FFF"/>
<path d="M244.18 72.8825H239.683C237.658 72.8825 236.604 71.2266 237.341 69.2022L240.691 60.0036C241.427 57.9792 243.685 56.3232 245.709 56.3232H250.207C252.231 56.3232 253.286 57.9792 252.549 60.0036L249.199 69.2022C248.462 71.2309 246.205 72.8825 244.18 72.8825Z" fill="#1E7FFF"/>
<path d="M401.092 250.681C409.257 205.878 407.47 189.852 385.6 153.286C363.73 116.716 361.642 48.6618 353.401 68.6219C345.159 88.582 346.264 138.705 372.103 163.031C397.941 187.353 401.418 198.246 402.951 208.148C404.485 218.049 399.263 248.479 399.263 248.479L401.092 250.681Z" fill="#9CD499"/>
<path d="M405.183 221.81C405.196 221.637 405.209 221.467 405.221 221.298C404.743 217.622 402.147 198.716 398.555 191.258C394.57 182.979 377.088 168.567 372.183 150.47C367.275 132.378 359.499 118.351 354.396 106.925C347.658 91.8348 351.342 71.773 356.911 65.2552C356.776 65.1662 356.64 65.107 356.505 65.0688L354.654 66.1869C354.252 66.7671 353.833 67.5718 353.401 68.6221C345.159 88.5822 346.264 138.705 372.103 163.031C397.941 187.354 401.418 198.246 402.951 208.148C403.366 210.82 403.286 214.983 402.951 219.642L405.183 221.81Z" fill="#81F37A"/>
<path d="M389.928 242.778C396.001 190.127 393.977 171.904 382.233 129.781C370.489 87.663 447.034 -8.32169 444.604 8.27997C442.173 24.8859 434.075 66.1952 413.014 92.1141C391.953 118.033 390.335 139.094 394.384 161.371C398.432 183.648 393.575 235.485 393.575 235.485L391.144 244.803L389.928 242.778Z" fill="#9CD499"/>
<path d="M392.727 220.899C392.719 220.899 392.715 220.899 392.706 220.899C392.427 220.887 392.206 220.654 392.219 220.37C392.223 220.209 392.829 203.976 392.524 190.656C392.219 177.32 388.607 154.472 386.409 146.624C384.405 139.475 381.89 115.509 394.108 90.7543C400.194 78.4258 405.052 70.629 411.777 59.8422C418.422 49.1781 426.693 35.9095 439.813 12.5317C439.949 12.286 440.258 12.2013 440.504 12.3369C440.749 12.4724 440.834 12.7815 440.698 13.0272C427.565 36.4262 419.29 49.7075 412.637 60.38C405.928 71.1457 401.083 78.9214 395.019 91.2032C382.94 115.669 385.413 139.306 387.387 146.349C389.598 154.247 393.236 177.227 393.54 190.635C393.845 203.989 393.24 220.251 393.236 220.412C393.223 220.683 392.998 220.899 392.727 220.899Z" fill="#81F37A"/>
<path d="M391.956 261.692C395.603 226.456 396.213 243.833 381.072 195.959C363.746 141.165 425.57 92.5207 435.697 112.366C445.823 132.212 457.567 194.583 453.111 192.558C448.656 190.534 419.091 132.619 418.282 135.05C417.473 137.481 378.188 157.729 379.806 178.383C381.428 199.038 396.412 231.843 396.412 231.843L396.005 262.099L391.956 261.692Z" fill="#9CD499"/>
<path d="M396.006 261.684C395.989 261.684 395.972 261.684 395.955 261.679L391.907 261.273C391.771 261.26 391.648 261.192 391.564 261.086C391.479 260.981 391.437 260.849 391.454 260.714C391.877 256.644 392.262 253.213 392.576 250.461C394.274 235.502 394.274 235.502 389.628 222.687C387.532 216.897 384.656 208.965 380.59 196.107C377.55 186.493 376.766 176.528 378.257 166.491C379.57 157.644 382.611 148.919 387.286 140.559C395.303 126.228 407.924 113.92 419.435 109.202C427.435 105.924 433.529 106.992 436.151 112.133C440.45 120.557 445.587 137.806 449.898 158.271C452.384 170.082 456.039 190.652 453.964 192.825C453.68 193.121 453.286 193.193 452.905 193.02C450.474 191.914 442.427 177.714 431.323 157.775C425.758 147.776 420.011 137.463 418.461 135.68C417.834 136.375 416.259 137.463 412.989 139.678C401.986 147.141 379.087 162.675 380.315 178.341C381.908 198.669 396.726 231.301 396.874 231.631C396.904 231.699 396.921 231.775 396.921 231.847L396.514 261.184C396.514 261.328 396.451 261.463 396.345 261.557C396.252 261.637 396.129 261.684 396.006 261.684ZM392.512 260.316L395.502 260.616L395.896 231.949C394.96 229.882 380.857 198.352 379.295 178.421C378.02 162.167 401.249 146.408 412.409 138.84C415.06 137.04 417.567 135.342 417.796 134.872C417.868 134.647 418.067 134.486 418.304 134.465C419.287 134.372 421.226 137.569 432.2 157.28C440.073 171.421 450.838 190.75 453.261 192.067C453.447 191.762 453.998 190.102 452.926 181.551C452.151 175.368 450.732 167.232 448.924 158.643C444.625 138.188 439.509 120.972 435.232 112.595C432.877 107.983 427.257 107.089 419.808 110.143C399.619 118.418 368.69 155.128 381.548 195.802C385.605 208.639 388.476 216.558 390.573 222.344C395.295 235.384 395.295 235.384 393.575 250.579C393.266 253.353 392.915 256.483 392.512 260.316Z" fill="#81F37A"/>
<path d="M404.684 263.154H386.304C385.041 263.154 383.911 262.434 383.792 261.54L377.617 215.115C377.334 212.972 378.748 211.167 380.772 211.167H410.215C412.239 211.167 413.654 212.972 413.37 215.115L407.195 261.54C407.077 262.434 405.946 263.154 404.684 263.154Z" fill="#1A0F91"/>
<path d="M402.507 261.552H399.877C398.59 261.552 397.556 260.807 397.577 259.88L398.509 219.777C398.556 217.783 400.191 216.105 402.143 216.105H406.137C408.089 216.105 409.508 217.783 409.296 219.777L405.031 259.88C404.925 260.807 403.795 261.552 402.507 261.552Z" fill="#A2DFF2"/>
<path d="M382.915 196.573L383.242 196.006C382.051 191.707 381.056 187.425 380.421 183.427C381.073 190.991 382.915 196.573 382.915 196.573Z" fill="#81F37A"/>
<path d="M382.916 162.637C381.721 165.623 380.993 168.736 380.595 171.806C386.02 153.998 416.229 137.917 418.194 135.206L418.541 134.524C407.191 131.357 389.048 147.302 382.916 162.637Z" fill="#81F37A"/>
<path d="M453.137 191.457C452.908 191.457 452.7 191.3 452.641 191.072L447.152 168.74C442.867 151.241 437.53 129.459 431.542 119.765C430.555 118.168 426.244 116.004 420.132 116.436C411.878 117.021 395.963 122.725 382.143 154.353C382.029 154.612 381.733 154.726 381.474 154.616C381.216 154.502 381.102 154.205 381.212 153.947C395.247 121.828 411.573 116.021 420.06 115.42C426.659 114.954 431.254 117.364 432.406 119.227C438.479 129.057 443.612 150.008 448.139 168.494L453.628 190.826C453.696 191.097 453.526 191.372 453.255 191.44C453.217 191.453 453.179 191.457 453.137 191.457Z" fill="#81F37A"/>
<path d="M437.04 162.324C437.019 162.324 437.002 162.324 436.981 162.32C436.701 162.286 436.502 162.036 436.536 161.756C436.557 161.574 438.616 143.215 433.788 123.911C433.72 123.64 433.885 123.365 434.156 123.293C434.431 123.225 434.702 123.39 434.774 123.661C439.649 143.151 437.57 161.684 437.544 161.871C437.515 162.133 437.294 162.324 437.04 162.324Z" fill="#81F37A"/>
<path d="M431.364 150.977C431.343 150.977 431.326 150.977 431.305 150.973C431.025 150.939 430.826 150.689 430.86 150.41C430.881 150.241 432.83 133.436 431.47 119.544C431.445 119.265 431.648 119.015 431.927 118.99C432.203 118.96 432.457 119.168 432.482 119.447C433.85 133.448 431.889 150.359 431.868 150.529C431.839 150.787 431.618 150.977 431.364 150.977Z" fill="#81F37A"/>
<path d="M412.044 60.821C411.853 60.821 411.671 60.7151 411.586 60.533C411.463 60.2789 411.569 59.9782 411.823 59.8554C411.967 59.7876 426.498 52.6811 434.905 37.0747C435.036 36.829 435.345 36.7359 435.591 36.8672C435.837 36.9984 435.93 37.3076 435.798 37.5532C427.231 53.4603 412.412 60.6982 412.264 60.7701C412.196 60.804 412.12 60.821 412.044 60.821Z" fill="#81F37A"/>
<path d="M401.313 79.2178C401.076 79.2178 400.864 79.0527 400.818 78.8113C400.763 78.536 400.936 78.2692 401.212 78.2099C401.33 78.1845 413.231 75.6349 427.368 64.2043C427.588 64.0265 427.906 64.0604 428.083 64.2806C428.261 64.5008 428.227 64.8184 428.007 64.9963C413.663 76.5921 401.538 79.1797 401.415 79.2051C401.381 79.2178 401.347 79.2178 401.313 79.2178Z" fill="#81F37A"/>
<path d="M392.444 97.0141C392.237 97.0141 392.11 97.0056 392.076 97.0056C391.797 96.9845 391.585 96.7431 391.606 96.4593C391.627 96.1798 391.873 95.968 392.152 95.9892C392.233 95.9935 400.436 96.4424 413.582 86.583C413.806 86.4136 414.124 86.4602 414.293 86.6847C414.463 86.9091 414.416 87.2268 414.192 87.3962C402.122 96.4508 394.219 97.0141 392.444 97.0141Z" fill="#81F37A"/>
</svg>
