<svg width="34" height="35" viewBox="0 0 34 35" fill="none" xmlns="http://www.w3.org/2000/svg">
<g clip-path="url(#clip0_242_787)">
<path d="M4.8909 34.1973L5.23418 34.1973C5.805 34.1443 6.24505 34.0037 6.77861 33.7056C12.6063 30.4462 18.4349 27.1852 24.2643 23.9224C24.2687 23.92 24.2724 23.9165 24.2752 23.9124C24.278 23.9082 24.2798 23.9035 24.2804 23.8985C24.281 23.8936 24.2805 23.8886 24.2788 23.8838C24.2772 23.8791 24.2744 23.8749 24.2709 23.8714L19.4394 19.04C19.4346 19.0352 19.4289 19.0313 19.4226 19.0287C19.4164 19.0261 19.4096 19.0248 19.4028 19.0248C19.396 19.0248 19.3893 19.0261 19.383 19.0287C19.3767 19.0313 19.371 19.0352 19.3662 19.04L4.33511 34.0711C4.33132 34.0749 4.32866 34.0797 4.32743 34.085C4.3262 34.0903 4.32644 34.0958 4.32813 34.1009C4.32982 34.106 4.33289 34.1106 4.33701 34.1141C4.34112 34.1176 4.34612 34.1199 4.35146 34.1208L4.8909 34.1973Z" fill="white"/>
<path d="M17.8259 17.4258L2.47504 2.07432C2.46958 2.06898 2.46302 2.06489 2.45581 2.06235C2.4486 2.05982 2.44093 2.05889 2.43333 2.05964C2.42572 2.06039 2.41837 2.06279 2.4118 2.06668C2.40522 2.07058 2.39958 2.07586 2.39527 2.08217C1.88133 2.82758 1.76625 3.44875 1.76625 4.41778C1.76538 13.2437 1.76886 22.0696 1.77671 30.8955C1.77758 31.6186 1.98943 32.2725 2.41226 32.8571C2.41468 32.8605 2.41783 32.8634 2.4215 32.8654C2.42516 32.8675 2.42926 32.8688 2.4335 32.8691C2.43774 32.8694 2.44201 32.8688 2.44603 32.8672C2.45004 32.8657 2.45369 32.8634 2.45673 32.8603L17.8259 17.4912C17.8477 17.4694 17.8477 17.4476 17.8259 17.4258Z" fill="white"/>
<path d="M31.2745 19.8972C32.666 18.6045 32.7608 16.3983 31.3569 15.0827C31.1577 14.8962 30.8103 14.663 30.3147 14.3831C28.9899 13.6351 27.6586 12.8897 26.3208 12.1469C26.3091 12.1404 26.2956 12.1379 26.2823 12.1398C26.269 12.1417 26.2566 12.1479 26.2469 12.1573L20.984 17.421C20.9791 17.4258 20.9753 17.4315 20.9727 17.4378C20.9701 17.444 20.9688 17.4508 20.9688 17.4576C20.9688 17.4644 20.9701 17.4711 20.9727 17.4774C20.9753 17.4837 20.9791 17.4894 20.984 17.4942L26.2469 22.7578C26.2568 22.7676 26.2695 22.7739 26.2833 22.7758C26.2971 22.7777 26.3112 22.775 26.3234 22.7683C27.8365 21.9252 29.343 21.0815 30.843 20.2372C30.9541 20.1744 31.098 20.0611 31.2745 19.8972Z" fill="white"/>
<path d="M5.2091 0.718112L4.91486 0.718112L4.33946 0.797229C4.33516 0.797752 4.3311 0.799485 4.32774 0.802226C4.32439 0.804966 4.32188 0.808601 4.32051 0.81271C4.31914 0.816818 4.31897 0.821233 4.32001 0.825437C4.32105 0.829641 4.32326 0.833464 4.32638 0.836462L19.3653 15.8754C19.3701 15.8802 19.3758 15.8841 19.3821 15.8867C19.3884 15.8893 19.3951 15.8906 19.4019 15.8906C19.4087 15.8906 19.4155 15.8893 19.4218 15.8867C19.428 15.8841 19.4337 15.8802 19.4385 15.8754L24.27 11.044C24.2735 11.0404 24.2761 11.0361 24.2777 11.0314C24.2792 11.0266 24.2797 11.0216 24.279 11.0167C24.2783 11.0119 24.2765 11.0072 24.2736 11.0032C24.2708 10.9992 24.2671 10.9959 24.2628 10.9936C18.4355 7.73215 12.6093 4.47218 6.78427 1.21374C6.23763 0.908387 5.79366 0.764536 5.2091 0.718112Z" fill="white"/>
</g>
<defs>
<clipPath id="clip0_242_787">
<rect width="33.478" height="33.478" fill="white" transform="matrix(1 1.74846e-07 1.74846e-07 -1 0.326172 34.1963)"/>
</clipPath>
</defs>
</svg>
